<svg width="21px" height="28px" viewBox="0 0 21 28" version="1.1" xmlns="http://www.w3.org/2000/svg"
    xmlns:xlink="http://www.w3.org/1999/xlink">
    <g id="Symbols" stroke="none" stroke-width="1" fill="none" fill-rule="evenodd">
        <g id="copy-to-clipboard" transform="translate(-14.000000, -12.000000)">
            <g id="Group">
                <rect id="Rectangle" x="0" y="0" width="50" height="54"></rect>
                <rect id="Rectangle" stroke="#009ab7" stroke-width="2" x="20" y="18" width="14"
                    height="21" rx="4"></rect>
                <rect id="Rectangle-Copy" stroke="#009ab7" stroke-width="3" x="20.5" y="18.5"
                    width="13" height="20" rx="4"></rect>
                <path
                    d="M18,32 L18,35 C15.790861,35 14,33.209139 14,31 L14,16 C14,13.790861 15.790861,12 18,12 L26,12 C28.209139,12 30,13.790861 30,16 L27,16 C27,15.4477153 26.5522847,15 26,15 L18,15 C17.4477153,15 17,15.4477153 17,16 L17,31 C17,31.5522847 17.4477153,32 18,32 Z"
                    id="Combined-Shape" fill="#009ab7" fill-rule="nonzero"></path>
            </g>
        </g>
    </g>
</svg>