<svg xmlns="http://www.w3.org/2000/svg" viewBox="0 0 19 19" height="19" width="19"><title>barrier-11.svg</title><rect fill="none" x="0" y="0" width="19" height="19"></rect><rect x="0" y="0" width="19" height="19" rx="9.5" ry="9.5" fill="#8766b3"></rect><path fill="#ffffff" transform="translate(4 4)" d="M9.5,2h-8a.5.5,0,0,0-.5.5v4a.5.5,0,0,0,.5.5H2V9.5a.5.5,0,0,0,1,0V9H8v.5a.5.5,0,0,0,1,0V7h.5a.5.5,0,0,0,.5-.5v-4A.5.5,0,0,0,9.5,2ZM2,3H3.5l3,3h-2L2,3.5ZM2,6V4.5L3.5,6ZM3,8V7H8V8ZM9,6H7.5l-3-3h2L9,5.5ZM9,4.5,7.5,3H9Z"></path></svg>