<svg xmlns="http://www.w3.org/2000/svg" viewBox="0 0 23 23" height="23" width="23"><title>blood-bank-15.svg</title><rect fill="none" x="0" y="0" width="23" height="23"></rect><rect x="0" y="0" width="23" height="23" rx="11.5" ry="11.5" fill="#f01d1d"></rect><path fill="#ffffff" transform="translate(4 4)" d="M11.2,7.1L11.2,7.1L7.5,2L3.8,7.1h0C3.3,7.8,3,8.7,3,9.6C3,12,5,14,7.5,14c0,0,0,0,0,0C10,14,12,12,12,9.6c0,0,0,0,0,0
	C12,8.7,11.7,7.8,11.2,7.1z M10,10H8v2H7v-2H5V9h2V7h1v2h2V10z"></path></svg>