<svg xmlns="http://www.w3.org/2000/svg" viewBox="0 0 19 19" height="19" width="19"><title>bowling-alley-11.svg</title><rect fill="none" x="0" y="0" width="19" height="19"></rect><rect x="0" y="0" width="19" height="19" rx="9.5" ry="9.5" fill="#2bb8bd"></rect><path fill="#ffffff" transform="translate(4 4)" d="M6.02,3.94c.04-.1.13-.4.17-.49A2.8252,2.8252,0,0,0,4.5,3a3.5,3.5,0,0,0,0,7,2.88,2.88,0,0,0,1.54-.4,8.5971,8.5971,0,0,1-.4-2.61A12.7588,12.7588,0,0,1,6.02,3.94ZM2.5,6.98a.48.48,0,1,1,.48-.48A.4867.4867,0,0,1,2.5,6.98Zm1-2a.48.48,0,1,1,.48-.48A.4867.4867,0,0,1,3.5,4.98Zm1,2a.48.48,0,1,1,.48-.48A.4867.4867,0,0,1,4.5,6.98ZM8.0981,2.4992c0-.5-.1-.5-.1-1,0-.7816.5-.7.5-.7s.5-.0814.5.7c0,.5-.1.5-.1,1,0,1.5,1.075,2.5039,1.075,4.5,0,1.5-.475,3-.975,3h-1c-.5,0-.975-1.5-.975-3C7.0231,5.0031,8.0981,3.9992,8.0981,2.4992Z"></path></svg>