<svg xmlns="http://www.w3.org/2000/svg" viewBox="0 0 19 19" height="19" width="19"><title>charging-station-11.svg</title><rect fill="none" x="0" y="0" width="19" height="19"></rect><rect x="0" y="0" width="19" height="19" rx="9.5" ry="9.5" fill="#8766b3"></rect><path fill="#ffffff" transform="translate(4 4)" d="M9.5,3H9V1.5C9,1.2239,8.7761,1,8.5,1S8,1.2239,8,1.5V3c0,0.5523,0.4477,1,1,1v4.25C9,8.3881,8.8881,8.5,8.75,8.5
	S8.5,8.3881,8.5,8.25V6.5C8.5,5.6716,7.8284,5,7,5V2c0-0.5523-0.4477-1-1-1H2C1.4477,1,1,1.4477,1,2v7c0,0.5523,0.4477,1,1,1h4
	c0.5523,0,1-0.4477,1-1V6c0.2761,0,0.5,0.2239,0.5,0.5v1.75c0,0.6904,0.5596,1.25,1.25,1.25S10,8.9404,10,8.25V3.5
	C10,3.2239,9.7761,3,9.5,3z M3.5,8.75H3L4,6H1.75L4.5,2.25H5L4,5h2.25L3.5,8.75z"></path></svg>