<svg xmlns="http://www.w3.org/2000/svg" viewBox="0 0 23 23" height="23" width="23"><title>confectionery-15.svg</title><rect fill="none" x="0" y="0" width="23" height="23"></rect><rect x="0" y="0" width="23.5" height="23.5" rx="11.75" ry="11.75" fill="#f0842b"></rect><path fill="#ffffff" transform="translate(4 4)" d="M13,4a1,1,0,0,0-1-1,1,1,0,0,0-2,0V5.0673A3.4808,3.4808,0,0,0,4.3583,9H2a1,1,0,0,0,0,2,1,1,0,0,0,1,1,1,1,0,0,0,2,0V9.9326A3.4807,3.4807,0,0,0,10.6417,6H13a1,1,0,0,0,0-2ZM7.5,9.9925A2.484,2.484,0,0,1,6.3184,5.319a1.0809,1.0809,0,0,1,.5459.307A2.1243,2.1243,0,0,1,7.25,7.0117l.001.9561A2.5821,2.5821,0,0,0,7.76,9.7031a1.5462,1.5462,0,0,0,.2591.2333A2.4861,2.4861,0,0,1,7.5,9.9925ZM8.6815,9.681a1.0813,1.0813,0,0,1-.5458-.307A2.1243,2.1243,0,0,1,7.75,7.9883l-.001-.9561A2.5821,2.5821,0,0,0,7.24,5.2969a1.5557,1.5557,0,0,0-.2592-.2334A2.4843,2.4843,0,0,1,8.6815,9.681Z"></path></svg>