<svg xmlns="http://www.w3.org/2000/svg" viewBox="0 0 19 19" height="19" width="19"><title>entrance-alt1-11.svg</title><rect fill="none" x="0" y="0" width="19" height="19"></rect><rect x="0" y="0" width="19" height="19" rx="9.5" ry="9.5" fill="#5c5348"></rect><path fill="#ffffff" transform="translate(4 4)" d="M4.793,7.263A.5.5,0,0,0,5.5,7.97L7.743,5.677a.25.25,0,0,0,0-.354h0L5.489,3.042a.5.5,0,0,0-.707.707L6,5H1.5a.5.5,0,0,0,0,1H6ZM9,1H4.5a.5.5,0,0,0,0,1h4a.5.5,0,0,1,.5.5v6a.5.5,0,0,1-.5.5h-4a.5.5,0,0,0,0,1H9a1,1,0,0,0,1-1V2A1,1,0,0,0,9,1Z"></path></svg>