<svg xmlns="http://www.w3.org/2000/svg" viewBox="0 0 19 19" height="19" width="19"><title>furniture-11.svg</title><rect fill="none" x="0" y="0" width="19" height="19"></rect><rect x="0" y="0" width="19" height="19" rx="9.5" ry="9.5" fill="#5c5348"></rect><path fill="#ffffff" transform="translate(4 4)" d="M6,7.5552V6c0-0.2762-0.2239-0.5-0.5-0.5S5,5.7238,5,6v1.5552c-0.9391,0.1914-1.6886,0.9044-1.9231,1.827
		C2.9976,9.6944,3.244,10,3.566,10H7.434c0.3221,0,0.5685-0.3056,0.4891-0.6177C7.6886,8.4596,6.9391,7.7466,6,7.5552z"></path><path fill="#ffffff" transform="translate(4 4)" d="M9.1348,4.2697L7.6395,1.2789C7.554,1.108,7.3793,1,7.1881,1H3.8119C3.6207,1,3.446,1.108,3.3605,1.2789L1.8652,4.2697
		C1.6974,4.6052,1.9414,5,2.3166,5H7v0.75C7,5.8881,7.1119,6,7.25,6S7.5,5.8881,7.5,5.75V5h1.1834
		C9.0586,5,9.3026,4.6052,9.1348,4.2697z"></path></svg>