<svg xmlns="http://www.w3.org/2000/svg" viewBox="0 0 23 23" height="23" width="23"><title>furniture-15.svg</title><rect fill="none" x="0" y="0" width="23" height="23"></rect><rect x="0" y="0" width="23" height="23" rx="11.5" ry="11.5" fill="#5c5348"></rect><path fill="#ffffff" transform="translate(4 4)" d="M9,10.1419V8.5013C9,8.2244,8.7756,8,8.4987,8H7.5013C7.2244,8,7,8.2244,7,8.5013v1.6406
		c-1.538,0.3984-2.7227,1.6744-2.9573,3.2719C3.9976,13.7202,4.2291,14,4.5389,14h6.9222c0.3098,0,0.5413-0.2798,0.4962-0.5862
		C11.7227,11.8163,10.538,10.5403,9,10.1419z"></path><path fill="#ffffff" transform="translate(4 4)" d="M13.6394,6.2788l-2.5016-5.0034C11.0533,1.1066,10.8808,1,10.692,1H5.308C5.1192,1,4.9467,1.1066,4.8622,1.2755
		L2.3606,6.2788C2.1949,6.6102,2.4359,7,2.8063,7H11v1.5C11,8.7761,11.2239,9,11.5,9S12,8.7761,12,8.5V7h1.1937
		C13.5641,7,13.8051,6.6102,13.6394,6.2788z"></path></svg>