<svg xmlns="http://www.w3.org/2000/svg" viewBox="0 0 19 19" height="19" width="19"><title>gaming-11.svg</title><rect fill="none" x="0" y="0" width="19" height="19"></rect><rect x="0" y="0" width="19" height="19" rx="9.5" ry="9.5" fill="#5c5348"></rect><path fill="#ffffff" transform="translate(4 4)" d="M9.715,5.8a2.046,2.046,0,0,0-2-1.8h-1.7V2.5c0-.2.2-.5.4-.5h2.1a.472.472,0,0,0,.5-.5.472.472,0,0,0-.5-.5h-2a1.453,1.453,0,0,0-1.5,1.4V4h-1.8a2.046,2.046,0,0,0-2,1.8l-.2,2.8a.991.991,0,0,0,.8,1.1,1.613,1.613,0,0,0,.9-.3L4.115,8h2.8l1.4,1.4a1.071,1.071,0,0,0,1.4.1,1.613,1.613,0,0,0,.3-.9ZM4.015,7h-2V6a.945.945,0,0,1,1-1h1Zm5,0h-2V5h1a1,1,0,0,1,1,1Z"></path></svg>