<svg xmlns="http://www.w3.org/2000/svg" viewBox="0 0 19 19" height="19" width="19"><title>garden-centre-11.svg</title><rect fill="none" x="0" y="0" width="19" height="19"></rect><rect x="0" y="0" width="19" height="19" rx="9.5" ry="9.5" fill="#5c5348"></rect><path fill="#ffffff" transform="translate(4 4)" d="M10.875,5.1642l-0.007-.008-0.029-.029-0.971-.971A0.5,0.5,0,0,0,9,4.4952V5.6429L7,7.6458V3A2,2,0,0,0,3,3,2,2,0,0,0,3,7V8A1,1,0,0,0,4,9H6a0.9843,0.9843,0,0,0,.8328-0.48L9.3606,5.9893H10.422A0.5,0.5,0,0,0,10.875,5.1642ZM1.5,5A1.5,1.5,0,0,1,3,3.5v3A1.5,1.5,0,0,1,1.5,5Zm2-2a1.5,1.5,0,0,1,3,0h-3Z"></path></svg>