<svg xmlns="http://www.w3.org/2000/svg" viewBox="0 0 19 19" height="19" width="19"><title>jewelry-store-11.svg</title><rect fill="none" x="0" y="0" width="19" height="19"></rect><rect x="0" y="0" width="19" height="19" rx="9.5" ry="9.5" fill="#4a84e0"></rect><path fill="#ffffff" transform="translate(4 4)" d="M7.574,3.6944L6.7227,4.3329C7.4811,4.7628,8,5.5677,8,6.5C8,7.8785,6.8785,9,5.5,9S3,7.8785,3,6.5
	c0-0.9323,0.5189-1.7372,1.2773-2.1671L3.426,3.6944C2.5652,4.332,2,5.3465,2,6.5C2,8.433,3.567,10,5.5,10S9,8.433,9,6.5
	C9,5.3465,8.4348,4.332,7.574,3.6944z M7.5,2.5L6.5,1h-2l-1,1.5l2,1.5L7.5,2.5z"></path></svg>