<svg xmlns="http://www.w3.org/2000/svg" viewBox="0 0 19 19" height="19" width="19"><title>landmark-11.svg</title><rect fill="none" x="0" y="0" width="19" height="19"></rect><rect x="0" y="0" width="19" height="19" rx="9.5" ry="9.5" fill="#5c5348"></rect><path fill="#ffffff" transform="translate(4 4)" d="M9.5,9H8V5h1l1-2C9.3,3.1,8.7,3.1,8,3C7.3,2.7,6.6,2.4,6,2V1.5C6,1.2,5.8,1,5.5,1S5,1.2,5,1.5V2C4.4,2.4,3.7,2.7,3,3
	C2.3,3.1,1.7,3.1,1,3l1,2h1v4H1.5C1.2,9,1,9.2,1,9.5S1.2,10,1.5,10h8C9.8,10,10,9.8,10,9.5S9.8,9,9.5,9z M7,9H4V5h3V9z"></path></svg>