<svg xmlns="http://www.w3.org/2000/svg" viewBox="0 0 19 19" height="19" width="19"><title>marker-stroked-11.svg</title><rect fill="none" x="0" y="0" width="19" height="19"></rect><rect x="0" y="0" width="19" height="19" rx="9.5" ry="9.5" fill="#5c5348"></rect><path fill="#ffffff" transform="translate(4 4)" d="M5.486,11l-.365-.446c-.7-.858-3.544-4.739-3.544-6.638A3.726,3.726,0,0,1,5.132.026q.167-.008.333,0A3.726,3.726,0,0,1,9.353,3.583q.007.166,0,.331c0,1.6-1.806,4.268-3.38,6.415ZM5.465.916a2.817,2.817,0,0,0-3,3c0,1.268,1.883,4.161,2.987,5.62.935-1.282,3.011-4.217,3.011-5.62a2.817,2.817,0,0,0-3-3Z"></path></svg>