<svg xmlns="http://www.w3.org/2000/svg" viewBox="0 0 23 23" height="23" width="23"><title>restaurant-pizza-15.svg</title><rect fill="none" x="0" y="0" width="23" height="23"></rect><rect x="0" y="0" width="23.5" height="23.5" rx="11.75" ry="11.75" fill="#f0842b"></rect><path fill="#ffffff" transform="translate(4 4)" d="M2.3926,8.9315,1.0245,8.3148A14.0478,14.0478,0,0,1,8.7637.9994l.027.07L9.3022,2.4l-.0037.0013a12.6131,12.6131,0,0,0-6.9057,6.53Zm10.9631,4.96L3.42,9.413a11.6038,11.6038,0,0,1,6.354-6.0088l.0033-.0013.8163,2.1222c-.0281-.0022-.0521-.0162-.0808-.0162a1.062,1.062,0,1,0,.7642,1.7932L13.69,13.575A.2487.2487,0,0,1,13.3557,13.891Zm-4.93-5.3727a.9245.9245,0,1,0-.9245.9244A.9245.9245,0,0,0,8.4255,8.5183Zm3.0169,2.03a.9252.9252,0,1,0-.9252.9252A.9252.9252,0,0,0,11.4424,10.5478Z"></path></svg>