<svg xmlns="http://www.w3.org/2000/svg" viewBox="0 0 19 19" height="19" width="19"><title>shoe-11.svg</title><rect fill="none" x="0" y="0" width="19" height="19"></rect><rect x="0" y="0" width="19" height="19" rx="9.5" ry="9.5" fill="#5c5348"></rect><path fill="#ffffff" transform="translate(4 4)" d="M7.5,5L5.8046,3.9827L4.8011,2.6763c-0.1514-0.1979-0.4349-0.2345-0.6275-0.083c-0.124,0.0961-0.1756,0.2449-0.164,0.3913
		H4.0024V4H2V3.5C2,3.2238,1.7761,3,1.5,3S1,3.2238,1,3.5V4v1v1h3.5C5.5,6,6,7,7,7c1.0385,0,3,0,3,0l0.0038-0.5
		C10.0038,5.9456,7.5,5,7.5,5z"></path><path fill="#ffffff" transform="translate(4 4)" d="M5.5273,7.584C5.1172,7.3101,4.6514,7,4,7H1v1.4707C1,8.763,1.237,9,1.5293,9h1.9414C3.763,9,4,8.763,4,8.4707V8
		c0.3486,0,0.6377,0.1924,0.9727,0.416C5.3828,8.6895,5.8486,9,6.5,9h3C9.7764,9,10,8.7764,10,8.5V8H6.5
		C6.1514,8,5.8623,7.8071,5.5273,7.584z"></path></svg>