<svg xmlns="http://www.w3.org/2000/svg" viewBox="0 0 23 23" height="23" width="23"><title>slipway-15.svg</title><rect fill="none" x="0" y="0" width="23" height="23"></rect><rect x="0" y="0" width="23" height="23" rx="11.5" ry="11.5" fill="#5c5348"></rect><path fill="#ffffff" transform="translate(4 4)" d="M1.0417,11l12,1.495V13h-12Zm12-4-1,1v.5833L4.2381,5.3318l.0624-.1248L5.652,3.8447h.8311a.35.35,0,0,0,0-.6992H5.5065a.3518.3518,0,0,0-.248.1025L3.7643,4.7529a.3714.3714,0,0,0-.0654.0909l-.109.218L1.0417,4c0,2-.0293,3.9578,2.8595,4.4994C5.321,8.7656,12.0417,10,12.0417,10l2-2Z"></path></svg>