<svg xmlns="http://www.w3.org/2000/svg" viewBox="0 0 19 19" height="19" width="19"><title>slipway-11.svg</title><rect fill="none" x="0" y="0" width="19" height="19"></rect><rect x="0" y="0" width="19" height="19" rx="9.5" ry="9.5" fill="#5c5348"></rect><path fill="#ffffff" transform="translate(4 4)" d="M1.0417,8l8,1.3794V10h-8Zm8-4-1,1v.625L3.7345,4.01l.0777-.2852.86-.8447H5.5a.35.35,0,0,0,0-.6992H4.529a.3478.3478,0,0,0-.2451.1L3.2546,3.291a.3566.3566,0,0,0-.0928.1582l-.0856.3137L1.0417,3C1.0948,4,1,5.5094,3,5.8844,3.9829,6.0687,8.0948,7,8.0948,7l1.9469-2Z"></path></svg>