<svg xmlns="http://www.w3.org/2000/svg" viewBox="0 0 19 19" height="19" width="19"><title>teahouse-11.svg</title><rect fill="none" x="0" y="0" width="19" height="19"></rect><rect x="0" y="0" width="19" height="19" rx="9.5" ry="9.5" fill="#5c5348"></rect><path fill="#ffffff" transform="translate(4 4)" d="M6.2,4C7.4,3.7,8,3.7,8,2.5c0-0.6-0.4-0.8-1.6-1.3C5.6,0.9,5.3,0.9,5.3,0.1C5,1,5.2,1.3,6.1,1.8C8.1,2.8,6.2,4,6.2,4z
	 M3.9,4C4.6,3.8,5,3.8,5,3.1C5,2.7,4.7,2.6,4,2.2C3.5,2,3.3,1.5,3.3,1C3.1,1.6,3.2,2.3,3.8,2.6C5,3.2,3.9,4,3.9,4z M9,5H2l1,3
	c0.3,0.4,0.6,0.7,1,1v2h3V9c0.4-0.3,0.7-0.6,1-1L9,5z"></path></svg>