<svg xmlns="http://www.w3.org/2000/svg" viewBox="0 0 23 23" height="23" width="23"><title>telephone-15.svg</title><rect fill="none" x="0" y="0" width="23" height="23"></rect><rect x="0" y="0" width="23" height="23" rx="11.5" ry="11.5" fill="#8766b3"></rect><path fill="#ffffff" transform="translate(4 4)" d="M4.51,8.88a0.51,0.51,0,0,0,0,.72l0.72,0.72L3.07,12.5,2.7,12.13A2.24,2.24,0,0,1,2,10.69V9.24a2.24,2.24,0,0,1,.7-1.45L7.77,2.72A2.24,2.24,0,0,1,9.22,2h1.45a2.24,2.24,0,0,1,1.45.72l0.36,0.36L10.31,5.26,9.58,4.53a0.51,0.51,0,0,0-.72,0ZM4.13,13.6a1,1,0,0,0,1.4137.0363Q5.5623,13.6186,5.58,13.6l0.72-.72a1,1,0,0,0,.0363-1.4137Q6.3186,11.4477,6.3,11.43Zm7.25-7.28a1,1,0,0,0,1.4137.0363C12.8061,6.3445,13.55,5.6,13.55,5.6a1,1,0,0,0,.0363-1.4137Q13.5686,4.1677,13.55,4.15Z"></path></svg>