<svg xmlns="http://www.w3.org/2000/svg" viewBox="0 0 19 19" height="19" width="19"><title>viewpoint-11.svg</title><rect fill="none" x="0" y="0" width="19" height="19"></rect><rect x="0" y="0" width="19" height="19" rx="9.5" ry="9.5" fill="#59ab59"></rect><path fill="#ffffff" transform="translate(4 4)" d="M4.4029,5.7765a.852.852,0,0,0-.183.2151L.75,3.3215a5.78,5.78,0,0,1,1.1-1.11ZM9.15,2.2216,6.6059,5.7824a1.3786,1.3786,0,0,1,.1841.1992l3.47-2.66A5.78,5.78,0,0,0,9.15,2.2216ZM5.37,7.0087a1,1,0,1,0,1.122.8609A1,1,0,0,0,5.37,7.0087ZM4.72,1.0216a5.7742,5.7742,0,0,0-1.52.41L4.9676,5.4353a.815.815,0,0,1,.2382-.0618Zm1.56.01L5.8265,5.3853a.7611.7611,0,0,1,.2059.0441L7.79,1.4315A5.5185,5.5185,0,0,0,6.28,1.0316Z"></path></svg>