<svg xmlns="http://www.w3.org/2000/svg" viewBox="0 0 23 23" height="23" width="23"><title>viewpoint-15.svg</title><rect fill="none" x="0" y="0" width="23" height="23"></rect><rect x="0" y="0" width="23" height="23" rx="11.5" ry="11.5" fill="#59ab59"></rect><path fill="#ffffff" transform="translate(4 4)" d="M6.02,8.425a2.3859,2.3859,0,0,0-.46.44l-4.55-3.5a7.9976,7.9976,0,0,1,1.51-1.51Zm6.46-4.56-3.5,4.55a2.3971,2.3971,0,0,1,.45.45l4.56-3.5A7.945,7.945,0,0,0,12.48,3.865ZM7.3042,10.0129a1.5,1.5,0,1,0,1.6829,1.2914h0A1.5,1.5,0,0,0,7.3042,10.0129ZM6.43,2.235a7.9329,7.9329,0,0,0-2.06.55l2.2,5.32a2.0438,2.0438,0,0,1,.61-.17Zm2.14.01-.75,5.69a2.49,2.49,0,0,1,.61.16l2.2-5.3A7.2129,7.2129,0,0,0,8.57,2.245Z"></path></svg>