<svg xmlns="http://www.w3.org/2000/svg" viewBox="0 0 19 19" height="19" width="19"><title>waste-basket-11.svg</title><rect fill="none" x="0" y="0" width="19" height="19"></rect><rect x="0" y="0" width="19" height="19" rx="9.5" ry="9.5" fill="#5c5348"></rect><path fill="#ffffff" transform="translate(4 4)" d="M9,4l-1.17,7H3.17L2,4H9z M9.25,2.25C9.25,2.3881,9.1381,2.5,9,2.5H2c-0.1381,0-0.25-0.1119-0.25-0.25S1.8619,2,2,2h2V0h3
	v0.5l0,0V2h2C9.1381,2,9.25,2.1119,9.25,2.25z M6.5,2V0.5h-2V2H6.5z"></path></svg>