<svg xmlns="http://www.w3.org/2000/svg" width="19" height="19" viewBox="0 0 19 19"><title>barcelona-metro</title><rect width="19" height="19" fill="none"/><path d="M9.5,19a2.24,2.24,0,0,1-1.35-.44h0L0.77,13a1.84,1.84,0,0,1,0-3L8.15,4.44a2.28,2.28,0,0,1,2.69,0L18.23,10a1.84,1.84,0,0,1,0,3l-7.38,5.56A2.24,2.24,0,0,1,9.5,19Zm0-1.94h0l7.38-5.56L9.51,5.94,2.11,11.5Z" fill="#fff" opacity="0.75"/><path d="M8.82,17.78L1.39,12.25a0.91,0.91,0,0,1,0-1.5L8.82,5.22a1.16,1.16,0,0,1,1.36,0l7.43,5.53a0.91,0.91,0,0,1,0,1.5l-7.43,5.53A1.16,1.16,0,0,1,8.82,17.78Z" fill="#f23d3d"/><polygon points="10 14.5 11.5 11 11.5 14.5 13 14.5 13 8.5 11.5 8.5 9.5 13 7.5 8.5 6 8.5 6 14.5 7.5 14.5 7.5 11 9 14.5 10 14.5" fill="#fff"/></svg>