<svg xmlns="http://www.w3.org/2000/svg" width="25" height="17" viewBox="0 0 25 17"><title>chongqing-metro</title><rect width="25" height="17" fill="none"/><rect y="5" width="25" height="12" rx="1" ry="1" fill="#fff" opacity="0.75"/><rect x="1" y="6" width="23" height="10" rx="1" ry="1" fill="#19a548"/><polygon points="9.5 11 10.5 11 13 8 16.5 8 14.5 11 13 11 13 14 9.5 14.02 9.5 11" fill="#fff"/><polygon points="18 8 23 8 21 11 19 11 17 14 14 14 18 8" fill="#fff"/><path d="M9.5,8.5l-1,1h-2l-1,2h2v2H3l3-5H9.5ZM11,8H5.5L2,14H8V11H6.5L7,10H9Z" fill="#fff"/></svg>