<svg xmlns="http://www.w3.org/2000/svg" width="35" height="19" viewBox="0 0 35 19">
  <title>de-s-bahn.de-u-bahn</title>
  <path d="M33,1H20a2,2,0,0,0-2,2V5.28a9.5,9.5,0,1,0,0,8.45V16a2,2,0,0,0,2,2H33a2,2,0,0,0,2-2V3A2,2,0,0,0,33,1Z" fill="#fff" opacity="0.75"/>
  <rect x="19" y="2" width="15" height="15" rx="1" ry="1" fill="#4862cc"/>
  <path d="M28.5,10a2.24,2.24,0,0,1-2,2,2.24,2.24,0,0,1-2-2V4.5H22v5c0,2.76,1.74,5,4.5,5s4.5-2.26,4.5-5v-5H28.5V10Z" fill="#fff"/>
  <circle cx="9.5" cy="9.5" r="8.5" fill="#19a548"/>
  <path d="M6.71,6.13c0-.52.54-1.33,2.24-1.33A6.5,6.5,0,0,1,14,6.71V5.07A7,7,0,0,0,8.94,3.35c-2,0-4.47,1.27-4.47,3.39,0,4.31,7.26,2.76,7.26,5.55,0,1.14-1.12,1.67-2.81,1.67A5.61,5.61,0,0,1,4.5,11.18v2.24c0.56,1.14,2.21,2.23,5,2.23s5-1.69,5-3.87C14.53,7.3,6.71,8.92,6.71,6.13Z" fill="#fff"/>
  <rect width="35" height="19" fill="none"/>
</svg>
