<svg xmlns="http://www.w3.org/2000/svg" width="19" height="19" viewBox="0 0 19 19"><title>de-s-bahn</title><circle cx="9.5" cy="9.5" r="9.5" fill="#fff" opacity="0.75"/><circle cx="9.5" cy="9.5" r="8.5" fill="#19a548"/><path d="M6.71,6.13c0-.52.54-1.33,2.24-1.33A6.5,6.5,0,0,1,14,6.71V5.07A7,7,0,0,0,8.94,3.35c-2,0-4.47,1.27-4.47,3.39,0,4.31,7.26,2.76,7.26,5.55,0,1.14-1.12,1.67-2.81,1.67A5.61,5.61,0,0,1,4.5,11.18v2.24c0.56,1.14,2.21,2.23,5,2.23s5-1.69,5-3.87C14.53,7.3,6.71,8.92,6.71,6.13Z" fill="#fff"/><rect width="19" height="19" fill="none"/></svg>