<svg xmlns="http://www.w3.org/2000/svg" width="19" height="19" viewBox="0 0 19 19"><title>delhi-metro</title><path d="M9.5,19A9.5,9.5,0,1,1,19,9.5,9.51,9.51,0,0,1,9.5,19Z" fill="#fff" opacity="0.75"/><circle cx="9.5" cy="9.5" r="8.5" fill="#fff"/><path d="M9.5,2.5a7,7,0,0,0-6.31,4H15.81A7,7,0,0,0,9.5,2.5Z" fill="none"/><path d="M8.55,12H16a6.88,6.88,0,0,0,.3-4H12.55Z" fill="none"/><path d="M3.76,13.5a7,7,0,0,0,11.47,0H3.76Z" fill="none"/><path d="M17.35,12.76A8.37,8.37,0,0,0,17.86,8h0c0-.26-0.1-0.51-0.17-0.75h0q-0.1-.37-0.24-0.73h0a8.49,8.49,0,0,0-15.89,0h0q-0.14.36-.24,0.73h0C1.24,7.49,1.19,7.74,1.14,8h0a8.37,8.37,0,0,0,.51,4.76h0a8.5,8.5,0,0,0,15.69,0h0ZM16.5,9.5A7,7,0,0,1,16,12H8.5l4.05-4h3.78A7,7,0,0,1,16.5,9.5Zm-7-7a7,7,0,0,1,6.31,4H3.19A7,7,0,0,1,9.5,2.5Zm1,5.5-4,4H3a6.88,6.88,0,0,1-.3-4H10.5Zm-1,8.5a7,7,0,0,1-5.74-3H15.24A7,7,0,0,1,9.5,16.5Z" fill="#f23d3d"/><rect width="19" height="19" fill="none"/></svg>