<svg xmlns="http://www.w3.org/2000/svg" width="36" height="16" viewBox="0 0 36 16">
  <title>gb-national-rail.london-underground</title>
  <path d="M33.6,5.5a8,8,0,0,0-15.19,0H17V3a2,2,0,0,0-2-2H2A2,2,0,0,0,0,3V13a2,2,0,0,0,2,2H15a2,2,0,0,0,2-2V10.5h1.4a8,8,0,0,0,15.19,0H36v-5H33.6Z" fill="#fff" opacity="0.75"/>
  <circle cx="26" cy="8" r="4" fill="#fff"/>
  <path d="M26,1a7,7,0,1,0,7,7A7,7,0,0,0,26,1Zm0,11a4,4,0,1,1,4-4A4,4,0,0,1,26,12Z" fill="#f23d3d"/>
  <rect x="17" y="6.5" width="18" height="3" fill="#4862cc"/>
  <rect x="1" y="2" width="15" height="12" rx="1" ry="1" fill="#f23d3d"/>
  <polygon points="15 7 15 6 12 6 7.26 4 5 4 9.67 6 2 6 2 7 9.67 7 5 9 2 9 2 10 5 10 9.67 12 12 12 7.26 10 15 10 15 9 7.26 9 12 7 15 7" fill="#fff"/>
</svg>
