<svg xmlns="http://www.w3.org/2000/svg" width="74" height="16" viewBox="0 0 74 16">
  <title>gb-national-rail.london-overground.london-tfl-rail.london-underground</title>
  <path d="M71.6,5.5a8,8,0,0,0-15.19,0H52.6a8,8,0,0,0-15.19,0H33.6a8,8,0,0,0-15.19,0H17V3a2,2,0,0,0-2-2H2A2,2,0,0,0,0,3V13a2,2,0,0,0,2,2H15a2,2,0,0,0,2-2V10.5h1.4a8,8,0,0,0,15.19,0H37.4a8,8,0,0,0,15.19,0H56.4a8,8,0,0,0,15.19,0H74v-5H71.6Z" fill="#fff" opacity="0.75"/>
  <circle cx="26" cy="8" r="4" fill="#fff"/>
  <path d="M26,1a7,7,0,1,0,7,7A7,7,0,0,0,26,1Zm0,11a4,4,0,1,1,4-4A4,4,0,0,1,26,12Z" fill="#ff8d40"/>
  <rect x="17" y="6.5" width="18" height="3" fill="#4862cc"/>
  <rect x="1" y="2" width="15" height="12" rx="1" ry="1" fill="#f23d3d"/>
  <polygon points="15 7 15 6 12 6 7.26 4 5 4 9.67 6 2 6 2 7 9.67 7 5 9 2 9 2 10 5 10 9.67 12 12 12 7.26 10 15 10 15 9 7.26 9 12 7 15 7" fill="#fff"/>
  <circle cx="45" cy="8" r="4" fill="#fff"/>
  <path d="M45,1a7,7,0,1,0,7,7A7,7,0,0,0,45,1Zm0,11a4,4,0,1,1,4-4A4,4,0,0,1,45,12Z" fill="#4862cc"/>
  <rect x="36" y="6.5" width="18" height="3" fill="#4862cc"/>
  <circle cx="64" cy="8" r="4" fill="#fff"/>
  <path d="M64,1a7,7,0,1,0,7,7A7,7,0,0,0,64,1Zm0,11a4,4,0,1,1,4-4A4,4,0,0,1,64,12Z" fill="#f23d3d"/>
  <rect x="55" y="6.5" width="18" height="3" fill="#4862cc"/>
</svg>
