<svg xmlns="http://www.w3.org/2000/svg" width="15" height="15" viewBox="0 0 15 15">
  <title>level-crossing</title>
  <path d="M11,13a2,2,0,0,1-1.4-.6L7.5,10.3,5.4,12.4A2,2,0,1,1,2.6,9.6L4.7,7.5,2.6,5.4a1.93,1.93,0,0,1,0-2.8,1.93,1.93,0,0,1,2.8,0L7.5,4.7,9.6,2.6a1.93,1.93,0,0,1,2.8,0,1.93,1.93,0,0,1,0,2.8L10.3,7.5l2.1,2.1A2,2,0,0,1,11,13Z" fill="#fff"/>
  <path d="M8.9,7.5l2.8-2.8a1,1,0,0,0-1.4-1.4L7.5,6.1,4.7,3.3A1,1,0,0,0,3.3,4.7L6.1,7.5,3.3,10.3a1,1,0,0,0,0,1.4A0.91,0.91,0,0,0,4,12a0.91,0.91,0,0,0,.7-0.3L7.5,8.9l2.8,2.8a1,1,0,0,0,1.4,0,1,1,0,0,0,0-1.4Z" fill="#b6b8c3"/>
</svg>
