<svg xmlns="http://www.w3.org/2000/svg" width="17" height="17" viewBox="0 0 17 17">
  <title>mexico-city-metro</title>
  <path d="M12.07,1H1V3H1V16H16V4.94A3.94,3.94,0,0,0,12.07,1Z" fill="#fff"/>
  <rect width="17" height="17" rx="2" ry="2" fill="#d6d6d6" opacity="0.75"/>
  <rect x="1" y="1" width="15" height="15" rx="1" ry="1" fill="#fff"/>
  <rect width="17" height="17" fill="none"/>
  <path d="M2.5,2V4H11a1.84,1.84,0,0,1,2,2v9h2V6a3.68,3.68,0,0,0-4-4H2.5Z" fill="#ff8d40"/>
  <path d="M2.5,5.5h1a0.88,0.88,0,0,1,1,1V15h-2V5.5h0Z" fill="#ff8d40"/>
  <path d="M6,5.5H7a0.88,0.88,0,0,1,1,1V15H6V5.5H6Z" fill="#ff8d40"/>
  <path d="M9.5,5.5h1a0.88,0.88,0,0,1,1,1V15h-2V5.5h0Z" fill="#ff8d40"/>
</svg>
