<svg xmlns="http://www.w3.org/2000/svg" width="17" height="17" viewBox="0 0 17 17"><title>moscow-metro</title><path d="M1.49,17l-0.3-.42A7.51,7.51,0,0,1,0,12.5,8.8,8.8,0,0,1,8.5,4,8.8,8.8,0,0,1,17,12.5a7.94,7.94,0,0,1-1.17,4.05l-0.3.45h-14Z" fill="#fff" opacity="0.75"/><path d="M8.5,5A7.83,7.83,0,0,0,1,12.5,6.48,6.48,0,0,0,2,16H15a6.92,6.92,0,0,0,1-3.5A7.83,7.83,0,0,0,8.5,5Z" fill="#4862cc"/><path d="M2.58,15A5.76,5.76,0,0,1,2,12.5,6.85,6.85,0,0,1,8.5,6,6.85,6.85,0,0,1,15,12.5a5.94,5.94,0,0,1-.59,2.5H2.58Z" fill="#fff"/><polygon points="10.5 7 8.5 10.5 6.5 7 4.5 13 3.5 13 3.5 14 7.5 14 7.5 13 6 13 7 10.5 8.5 13.5 10 10.5 11 13 9.5 13 9.5 14 13.5 14 13.5 13 12.5 13 10.5 7" fill="#f23d3d"/><rect width="17" height="17" fill="none"/></svg>