<svg xmlns="http://www.w3.org/2000/svg" width="19" height="19" viewBox="0 0 19 19">
  <title>new-york-subway</title>
  <circle cx="9.5" cy="9.5" r="8.5" fill="#4862cc"/>
  <path d="M9.5,1A8.5,8.5,0,1,1,1,9.5,8.5,8.5,0,0,1,9.5,1m0-1A9.5,9.5,0,1,0,19,9.5,9.51,9.51,0,0,0,9.5,0h0Z" fill="#fff" opacity="0.75"/>
  <rect width="19" height="19" fill="none"/>
  <circle cx="9.5" cy="9.5" r="8.5" fill="none"/>
  <path d="M16,12.1L15.5,6.58,5.82,5,5.11,9.9,4.41,4.76,2.65,4.48a8.46,8.46,0,0,0-.08,9.94L3,14.35v-6l1.3,5.79,1.5-.26L7,8.24v5.41l2-.34V7.85l1,0.06v5.21l1.5-.26V8l1.3,0.08-0.51,4.64,1.21-.21V11.81l1.5-.19v0.65Z" fill="#fff"/>
</svg>
