<svg xmlns="http://www.w3.org/2000/svg" width="19" height="19" viewBox="0 0 19 19"><title>paris-metro</title><circle cx="9.5" cy="9.5" r="9.5" fill="#fff" opacity="0.75"/><circle cx="9.5" cy="9.5" r="8.5" fill="#4862cc"/><circle cx="9.5" cy="9.5" r="7.5" fill="#fff"/><path d="M12.62,5a1.18,1.18,0,0,0-.82.3L9.5,8h0L7.2,5.3A1.18,1.18,0,0,0,6.38,5a0.78,0.78,0,0,0-.88.75V13a1,1,0,0,0,2,0V8.5L8.69,10h0a1.09,1.09,0,0,0,.81.5,1.09,1.09,0,0,0,.81-0.5h0L11.5,8.5V13a1,1,0,0,0,2,0V5.75A0.78,0.78,0,0,0,12.62,5Z" fill="#4862cc"/><rect width="19" height="19" fill="none"/></svg>