<svg xmlns="http://www.w3.org/2000/svg" width="19" height="19" viewBox="0 0 19 19">
  <title>paris-rer</title>
  <circle cx="9.5" cy="9.5" r="9.5" fill="#fff" opacity="0.75"/>
  <circle cx="9.5" cy="9.5" r="8.5" fill="#4862cc"/>
  <circle cx="9.5" cy="9.5" r="7.5" fill="#fff"/>
  <path d="M11.5,12.48A0.43,0.43,0,0,0,11.08,12H9V10h1.53A0.46,0.46,0,0,0,11,9.52,0.49,0.49,0,0,0,10.54,9H9V7h2.07a0.44,0.44,0,0,0,.42-0.48A0.49,0.49,0,0,0,11,6H8.46A0.45,0.45,0,0,0,8,6.48v6.09a0.5,0.5,0,0,0,.56.44H11A0.5,0.5,0,0,0,11.5,12.48Z" fill="#4862cc"/>
  <path d="M7.5,8A1.81,1.81,0,0,0,6,6H4.46A0.45,0.45,0,0,0,4,6.48v6.09a0.44,0.44,0,0,0,.5.44A0.47,0.47,0,0,0,5,12.5V10H5.25l1.28,2.77a0.41,0.41,0,0,0,.39.23c0.33,0,.81-0.31.62-0.68L6.25,9.88A2.16,2.16,0,0,0,7.5,8Zm-1,0a1,1,0,0,1-1,1H5V7H5.5A1,1,0,0,1,6.5,8Z" fill="#4862cc"/>
  <path d="M15.5,8A1.81,1.81,0,0,0,14,6H12.46a0.45,0.45,0,0,0-.46.48v6.09a0.44,0.44,0,0,0,.5.44,0.47,0.47,0,0,0,.5-0.5V10h0.25l1.28,2.77a0.41,0.41,0,0,0,.39.23c0.33,0,.81-0.31.62-0.68L14.25,9.87A2.16,2.16,0,0,0,15.5,8Zm-1,0a1,1,0,0,1-1,1H13V7h0.5A1,1,0,0,1,14.5,8Z" fill="#4862cc"/>
  <rect width="19" height="19" fill="none"/>
</svg>
