<svg xmlns="http://www.w3.org/2000/svg" width="17" height="17" viewBox="0 0 17 17"><title>paris-transilien</title><rect width="17" height="17" rx="2" ry="2" fill="#fff" opacity="0.75"/><rect x="1" y="1" width="15" height="15" rx="1" ry="1" fill="#4862cc"/><rect x="2" y="2" width="13" height="13" rx="0.5" ry="0.5" fill="#fff"/><path d="M12,9.5V5a1,1,0,0,0-1-1H6A1,1,0,0,0,5,5V9.5a1,1,0,0,0,1,1L4.5,13H6l1.2-2H9.7L11,13h1.5L11,10.5A1,1,0,0,0,12,9.5ZM7,9H6V8H7V9ZM6.5,7A0.47,0.47,0,0,1,6,6.5v-1A0.47,0.47,0,0,1,6.5,5h4a0.47,0.47,0,0,1,.5.5v1a0.47,0.47,0,0,1-.5.5h-4ZM10,9V8h1V9H10Z" fill="#4862cc"/><rect width="17" height="17" fill="none"/></svg>