<svg xmlns="http://www.w3.org/2000/svg" width="19" height="17" viewBox="0 0 19 17"><title>philadelphia-septa</title><rect width="19" height="17" fill="none"/><rect y="2" width="19" height="15" rx="2" ry="2" fill="#fff" opacity="0.75"/><path d="M12.5,7H7l4-4H6.5l-4,4,4,5H12L6.23,16H12l4.5-4Zm-1.57,4.5a0.69,0.69,0,0,1-.54-0.29L7,7.5H7.55a0.62,0.62,0,0,1,.55.3l3.4,3.7H10.93Z" fill="#fff"/><path d="M7.55,7.5H7l3.38,3.71a0.69,0.69,0,0,0,.54.29H11.5L8.1,7.8A0.62,0.62,0,0,0,7.55,7.5Z" fill="#f23d3d"/><path d="M17,3H11L7,7h5.5l4,5L12,16h5a1,1,0,0,0,1-1V4A1,1,0,0,0,17,3Z" fill="#f23d3d"/><path d="M6.5,12l-4-5,4-4H2A1,1,0,0,0,1,4V15a1,1,0,0,0,1,1H6.23L12,12H6.5Z" fill="#4862cc"/></svg>