<svg xmlns="http://www.w3.org/2000/svg" width="17" height="17" viewBox="0 0 17 17"><title>san-francisco-bart</title><g opacity="0.75"><rect width="17" height="17" rx="2" ry="2" fill="#d5d5d5"/></g><rect x="1" y="1" width="15" height="15" rx="1" ry="1" fill="#fff"/><path d="M13,6V6.78a3,3,0,1,0,0,4.44V12h2V6H13Zm-2,4.5A1.5,1.5,0,1,1,12.5,9,1.5,1.5,0,0,1,11,10.5Z" fill="#4862cc"/><path d="M6,6a3,3,0,0,0-2,.78V4H2v8H4V11.22A3,3,0,1,0,6,6Zm0,4.5A1.5,1.5,0,1,1,7.5,9,1.5,1.5,0,0,1,6,10.5Z" fill="#595959"/></svg>