<svg xmlns="http://www.w3.org/2000/svg" width="17" height="17" viewBox="0 0 17 17">
  <title>singapore-mrt</title>
  <rect width="17" height="17" rx="2" ry="2" fill="#fff" opacity="0.75"/>
  <rect x="1" y="1" width="15" height="15" rx="1" ry="1" fill="#19a548"/>
  <path d="M6.5,9C5.45,9,5,8.73,5,8c0-2.16-.12-4,3.5-4S12,5.84,12,8c0,0.73-.45,1-1.5,1h-4Zm7-.5c0-2.19-.73-4.71-1.5-5.5S9.37,2,8.5,2,5.83,2.14,5,3,3.5,6.31,3.5,8.5c0,1.06,0,4.5,1,4.5H5L3.5,15H5.67L7,13h3l1.5,2h2L12,13h0.5C13.54,13,13.5,9.56,13.5,8.5ZM7,11a1,1,0,1,1-1-1A1,1,0,0,1,7,11Zm5,0a1,1,0,1,1-1-1A1,1,0,0,1,12,11Z" fill="#fff"/>
</svg>
