<svg xmlns="http://www.w3.org/2000/svg" viewBox="0 0 17 17" height="17" width="17"><title>square-11.svg</title><rect fill="none" x="0" y="0" width="17" height="17"></rect><path fill="rgba(255,255,255,0.75)" transform="translate(3 3)" d="M9,10H2c-0.5523,0-1-0.4477-1-1V2c0-0.5523,0.4477-1,1-1h7c0.5523,0,1,0.4477,1,1v7C10,9.5523,9.5523,10,9,10z" style="stroke-linejoin:round;stroke-miterlimit:4;" stroke="rgba(255,255,255,0.75)" stroke-width="2"></path><path fill="#475bcc" transform="translate(3 3)" d="M9,10H2c-0.5523,0-1-0.4477-1-1V2c0-0.5523,0.4477-1,1-1h7c0.5523,0,1,0.4477,1,1v7C10,9.5523,9.5523,10,9,10z"></path></svg>