<svg xmlns="http://www.w3.org/2000/svg" viewBox="0 0 17 17" height="17" width="17"><title>square-stroked-11.svg</title><rect fill="none" x="0" y="0" width="17" height="17"></rect><path fill="rgba(255,255,255,0.75)" transform="translate(3 3)" d="M9.19,1H1.81C1.3626,1,1,1.3626,1,1.81v7.38C1,9.6374,1.3626,10,1.81,10c0,0,0,0,0,0h7.38C9.6374,10,10,9.6374,10,9.19v0
	V1.81C10,1.3626,9.6374,1,9.19,1L9.19,1L9.19,1z M2,2h7v7H2V2z" style="stroke-linejoin:round;stroke-miterlimit:4;" stroke="rgba(255,255,255,0.75)" stroke-width="2"></path><path fill="#475bcc" transform="translate(3 3)" d="M9.19,1H1.81C1.3626,1,1,1.3626,1,1.81v7.38C1,9.6374,1.3626,10,1.81,10c0,0,0,0,0,0h7.38C9.6374,10,10,9.6374,10,9.19v0
	V1.81C10,1.3626,9.6374,1,9.19,1L9.19,1L9.19,1z M2,2h7v7H2V2z"></path></svg>