<svg xmlns="http://www.w3.org/2000/svg" width="17" height="17" viewBox="0 0 17 17">
  <title>tokyo-metro</title>
  <rect width="17" height="17" rx="2" ry="2" fill="#fff" opacity="0.75"/>
  <rect x="1" y="1" width="15" height="15" rx="1" ry="1" fill="#32a5a5"/>
  <path d="M8.48,11a1,1,0,0,1-.87-1,4,4,0,0,1,.87-2,4.1,4.1,0,0,1,.9,2A1,1,0,0,1,8.48,11Zm0,1c1.45,0,2.1-.65,2.1-1.49,0-1-1-2.21-1.65-3,1.17-1.23,2.81-2.07,3.41-1.37S13.15,9.34,11.5,12l2.1,1c1.73-3.87,1.8-7.78.53-8.78-1-.8-3.75.77-5.63,2.78C6.61,5,3.83,3.42,2.84,4.22c-1.27,1-1.12,4.94.63,8.78l2-1C3.85,9.34,3.91,7,4.62,6.15S6.83,6.29,8,7.53c-0.64.76-1.65,2-1.65,3C6.37,11.34,7,12,8.5,12Z" fill="#fff"/>
</svg>
