<svg xmlns="http://www.w3.org/2000/svg" width="26" height="40" viewBox="0 0 26 40">
  <title>us-interstate-truck-3</title>
  <path d="M23,10a5.44,5.44,0,0,1,2,4v2c0,9.27-12,12-12,12S1,25.34,1,16V14a5.4,5.4,0,0,1,2-4,6.8,6.8,0,0,0,5,2,7,7,0,0,0,5-2,7.06,7.06,0,0,0,5,2,6.91,6.91,0,0,0,5-2M3,9a1,1,0,0,0-.58.19A6.38,6.38,0,0,0,0,14v2c0,4.18,2.24,7.76,6.48,10.35A22.94,22.94,0,0,0,12.78,29L13,29l0.22,0a23.17,23.17,0,0,0,6.3-2.64C23.76,23.74,26,20.17,26,16V14a6.42,6.42,0,0,0-2.42-4.82,1,1,0,0,0-1.33.15A5.9,5.9,0,0,1,18,11a6,6,0,0,1-4.26-1.68A1,1,0,0,0,13,9h0a1,1,0,0,0-.74.33A6,6,0,0,1,8,11,5.9,5.9,0,0,1,3.76,9.35,1,1,0,0,0,3,9H3Z" fill="#fff"/>
  <path d="M1,16c0,9.32,12,12,12,12s12-2.72,12-12V15H1v1Z" fill="#3b4ba6"/>
  <path d="M1,14a5.39,5.39,0,0,1,2-4,6.8,6.8,0,0,0,5,2,7,7,0,0,0,5-2,7.06,7.06,0,0,0,5,2,6.91,6.91,0,0,0,5-2,5.43,5.43,0,0,1,2,4H1Z" fill="#cc2929"/>
  <rect x="1" y="14" width="24" height="1" fill="#fff"/>
  <rect width="26" height="40" fill="none"/>
  <path d="M3.92,0H22.08A0.88,0.88,0,0,1,23,.84v6.3a0.88,0.88,0,0,1-.9.86H3.92A0.88,0.88,0,0,1,3,7.16V0.86A0.88,0.88,0,0,1,3.9,0h0Z" fill="#fff"/>
  <g>
    <path d="M5.68,1.85V7H4.73V1.85h-1V1H6.68V1.85h-1Z" fill="#222"/>
    <path d="M9.62,7L8.83,4.53H8.3V7H7.36V1H8.88a1.47,1.47,0,0,1,1.18.42,2.07,2.07,0,0,1,.35,1.35,2.79,2.79,0,0,1-.14,1,1.11,1.11,0,0,1-.55.61L10.6,7h-1ZM9.46,2.76a2.91,2.91,0,0,0,0-.35,1,1,0,0,0-.08-0.29,0.45,0.45,0,0,0-.18-0.2,0.57,0.57,0,0,0-.3-0.07H8.3V3.68H8.88a0.58,0.58,0,0,0,.3-0.07,0.45,0.45,0,0,0,.18-0.2,1,1,0,0,0,.08-0.29A2.93,2.93,0,0,0,9.46,2.76Z" fill="#222"/>
    <path d="M14.29,5.51a1.68,1.68,0,0,1-.11.62,1.46,1.46,0,0,1-.3.48,1.64,1.64,0,0,1-2.23,0,1.45,1.45,0,0,1-.3-0.48,1.67,1.67,0,0,1-.11-0.62V1h0.94V5.56a0.62,0.62,0,0,0,.17.48,0.59,0.59,0,0,0,.42.16A0.58,0.58,0,0,0,13.19,6a0.63,0.63,0,0,0,.17-0.48V1H14.3V5.51h0Z" fill="#222"/>
    <path d="M18.22,5.39a2.33,2.33,0,0,1-.14.73,1.39,1.39,0,0,1-.35.54,1.31,1.31,0,0,1-.45.29,1.66,1.66,0,0,1-.59.09A1.48,1.48,0,0,1,16,6.9a1.54,1.54,0,0,1-.46-0.37,1.34,1.34,0,0,1-.24-0.39,2.48,2.48,0,0,1-.13-0.52,5.83,5.83,0,0,1-.06-0.7V3.06a5.83,5.83,0,0,1,.06-0.7,2.48,2.48,0,0,1,.13-0.52,1.34,1.34,0,0,1,.24-0.39A1.54,1.54,0,0,1,16,1.08,1.47,1.47,0,0,1,16.7.93a1.66,1.66,0,0,1,.6.1,1.35,1.35,0,0,1,.45.29,1.33,1.33,0,0,1,.34.53,2.42,2.42,0,0,1,.13.73H17.28a2.23,2.23,0,0,0,0-.32A0.68,0.68,0,0,0,17.13,2,0.5,0.5,0,0,0,17,1.84a0.56,0.56,0,0,0-.27-0.06,0.52,0.52,0,0,0-.27.06,0.53,0.53,0,0,0-.17.16,1.49,1.49,0,0,0-.18.69A6.14,6.14,0,0,0,16,4V5.29a1.49,1.49,0,0,0,.18.69,0.53,0.53,0,0,0,.17.16,0.52,0.52,0,0,0,.27.06A0.56,0.56,0,0,0,17,6.14,0.5,0.5,0,0,0,17.13,6a0.77,0.77,0,0,0,.1-0.27,2.24,2.24,0,0,0,0-.32h0.94Z" fill="#222"/>
    <path d="M21.37,7l-1-2.46-0.45.92V7H19V1h0.94V3.81L21.25,1h1L21,3.48,22.38,7h-1Z" fill="#222"/>
  </g>
</svg>
