<svg xmlns="http://www.w3.org/2000/svg" width="20" height="40" viewBox="0 0 20 40">
  <title>us-interstate-truck-2</title>
  <path d="M0.92,0H19.08A0.88,0.88,0,0,1,20,.84v6.3a0.88,0.88,0,0,1-.9.86H0.92A0.88,0.88,0,0,1,0,7.16V0.86A0.88,0.88,0,0,1,.9,0h0Z" fill="#fff"/>
  <path d="M17,10a7.74,7.74,0,0,1,2,4v2c0,9.28-9,12-9,12S1,25.37,1,16V14a7.41,7.41,0,0,1,2-4,4.07,4.07,0,0,0,3.56,2A4,4,0,0,0,10,10a4,4,0,0,0,3.46,2A4.08,4.08,0,0,0,17,10m0-1H16.85a1,1,0,0,0-.74.52A3.07,3.07,0,0,1,13.46,11a2.94,2.94,0,0,1-2.57-1.46A1,1,0,0,0,10,9h0a1,1,0,0,0-.89.55A3,3,0,0,1,6.53,11,3.07,3.07,0,0,1,3.85,9.53,1,1,0,0,0,3.12,9H3a1,1,0,0,0-.7.28A8.3,8.3,0,0,0,0,14v2C0,26,9.62,28.93,9.72,29a1,1,0,0,0,.57,0C10.39,29,20,26,20,16.07V14a8.56,8.56,0,0,0-2.29-4.7A1,1,0,0,0,17,9h0Z" fill="#fff"/>
  <path d="M1,16c0,9.34,9,12,9,12s9-2.69,9-12V15H1v1Z" fill="#3b4ba6"/>
  <path d="M1,14a7.41,7.41,0,0,1,2-4,4.07,4.07,0,0,0,3.56,2A4,4,0,0,0,10,10a4,4,0,0,0,3.46,2A4.08,4.08,0,0,0,17,10a7.74,7.74,0,0,1,2,4H1Z" fill="#cc2929"/>
  <rect x="1" y="14" width="18" height="1" fill="#fff"/>
  <rect width="20" height="40" fill="none"/>
  <g>
    <path d="M2.68,1.85V7h-1V1.85h-1V1h3V1.85h-1Z" fill="#222"/>
    <path d="M6.62,7L5.83,4.53H5.3V7H4.36V1H5.88a1.47,1.47,0,0,1,1.18.42A2.07,2.07,0,0,1,7.4,2.76a2.79,2.79,0,0,1-.14,1,1.11,1.11,0,0,1-.55.61L7.6,7h-1ZM6.46,2.76a2.91,2.91,0,0,0,0-.35,1,1,0,0,0-.08-0.29,0.45,0.45,0,0,0-.18-0.2,0.57,0.57,0,0,0-.3-0.07H5.3V3.68H5.88a0.58,0.58,0,0,0,.3-0.07,0.45,0.45,0,0,0,.18-0.2,1,1,0,0,0,.08-0.29A2.93,2.93,0,0,0,6.46,2.76Z" fill="#222"/>
    <path d="M11.29,5.51a1.68,1.68,0,0,1-.11.62,1.46,1.46,0,0,1-.3.48A1.49,1.49,0,0,1,9.77,7a1.5,1.5,0,0,1-1.12-.44,1.45,1.45,0,0,1-.3-0.48,1.67,1.67,0,0,1-.11-0.62V1H9.19V5.56A0.62,0.62,0,0,0,9.36,6a0.59,0.59,0,0,0,.42.16A0.58,0.58,0,0,0,10.19,6a0.63,0.63,0,0,0,.17-0.48V1H11.3V5.51h0Z" fill="#222"/>
    <path d="M15.22,5.39a2.33,2.33,0,0,1-.14.73,1.39,1.39,0,0,1-.35.54,1.31,1.31,0,0,1-.45.29,1.66,1.66,0,0,1-.59.09A1.48,1.48,0,0,1,13,6.9a1.54,1.54,0,0,1-.46-0.37,1.34,1.34,0,0,1-.24-0.39,2.48,2.48,0,0,1-.13-0.52,5.83,5.83,0,0,1-.06-0.7V3.06a5.83,5.83,0,0,1,.06-0.7,2.48,2.48,0,0,1,.13-0.52,1.34,1.34,0,0,1,.24-0.39A1.54,1.54,0,0,1,13,1.08,1.47,1.47,0,0,1,13.7.93a1.66,1.66,0,0,1,.6.1,1.35,1.35,0,0,1,.45.29,1.33,1.33,0,0,1,.34.53,2.42,2.42,0,0,1,.13.73H14.28a2.23,2.23,0,0,0,0-.32A0.68,0.68,0,0,0,14.13,2,0.5,0.5,0,0,0,14,1.84a0.56,0.56,0,0,0-.27-0.06,0.52,0.52,0,0,0-.27.06,0.53,0.53,0,0,0-.17.16,1.49,1.49,0,0,0-.18.69A6.14,6.14,0,0,0,13,4V5.29a1.49,1.49,0,0,0,.18.69,0.53,0.53,0,0,0,.17.16,0.52,0.52,0,0,0,.27.06A0.56,0.56,0,0,0,14,6.14,0.5,0.5,0,0,0,14.13,6a0.77,0.77,0,0,0,.1-0.27,2.24,2.24,0,0,0,0-.32h0.94Z" fill="#222"/>
    <path d="M18.37,7l-1-2.46-0.45.92V7H16V1h0.94V3.81L18.25,1h1L18,3.48,19.38,7h-1Z" fill="#222"/>
  </g>
</svg>
