<svg xmlns="http://www.w3.org/2000/svg" width="24" height="20" viewBox="0 0 24 20">
  <title>za-national-3</title>
  <g>
    <path d="M5,17.5a.5.5,0,0,1-.46-.31l-4-10a.5.5,0,0,1,.23-.62l11-6a.5.5,0,0,1,.48,0l11,6a.5.5,0,0,1,.23.62l-4,10a.5.5,0,0,1-.46.31Z" fill="#3b4ba6"/>
    <path d="M12,1,23,7,19,17H5L1,7,12,1m0-1a1,1,0,0,0-.48.12l-11,6A1,1,0,0,0,.07,7.37l4,10A1,1,0,0,0,5,18H19a1,1,0,0,0,.93-.63l4-10a1,1,0,0,0-.45-1.25l-11-6A1,1,0,0,0,12,0Z" fill="#fff"/>
  </g>
  <rect width="24" height="20" fill="none"/>
</svg>
