<?xml version="1.0" encoding="UTF-8" standalone="no"?>
<!-- Created with Inkscape (http://www.inkscape.org/) -->

<svg
   xmlns:dc="http://purl.org/dc/elements/1.1/"
   xmlns:cc="http://creativecommons.org/ns#"
   xmlns:rdf="http://www.w3.org/1999/02/22-rdf-syntax-ns#"
   xmlns:svg="http://www.w3.org/2000/svg"
   xmlns="http://www.w3.org/2000/svg"
   xmlns:sodipodi="http://sodipodi.sourceforge.net/DTD/sodipodi-0.dtd"
   xmlns:inkscape="http://www.inkscape.org/namespaces/inkscape"
   width="18"
   height="18"
   viewBox="0 0 18 18"
   id="svg2"
   version="1.1"
   inkscape:version="0.91 r13725"
   sodipodi:docname="fromLocation.svg">
  <defs
     id="defs4" />
  <sodipodi:namedview
     id="base"
     pagecolor="#ffffff"
     bordercolor="#666666"
     borderopacity="1.0"
     inkscape:pageopacity="0.0"
     inkscape:pageshadow="2"
     inkscape:zoom="11.2"
     inkscape:cx="-10.191245"
     inkscape:cy="-3.2336982"
     inkscape:document-units="px"
     inkscape:current-layer="layer1"
     showgrid="true"
     fit-margin-top="0"
     fit-margin-left="0"
     fit-margin-right="0"
     fit-margin-bottom="0"
     units="px"
     inkscape:window-width="1280"
     inkscape:window-height="702"
     inkscape:window-x="0"
     inkscape:window-y="1"
     inkscape:window-maximized="1">
    <inkscape:grid
       type="xygrid"
       id="grid4163" />
  </sodipodi:namedview>
  <metadata
     id="metadata7">
    <rdf:RDF>
      <cc:Work
         rdf:about="">
        <dc:format>image/svg+xml</dc:format>
        <dc:type
           rdf:resource="http://purl.org/dc/dcmitype/StillImage" />
        <dc:title></dc:title>
      </cc:Work>
    </rdf:RDF>
  </metadata>
  <g
     inkscape:label="Layer 1"
     inkscape:groupmode="layer"
     id="layer1"
     transform="translate(-149.50257,-367.66153)">
    <path
       style="opacity:1;fill:#ffffff;fill-opacity:1;stroke:none;stroke-width:1.5;stroke-miterlimit:4;stroke-dasharray:none;stroke-opacity:1"
       d="m 165.27043,376.66153 a 6.7678569,6.7678569 0 0 1 -6.76786,6.76786 6.7678569,6.7678569 0 0 1 -6.76786,-6.76786 6.7678569,6.7678569 0 0 1 6.76786,-6.76786 6.7678569,6.7678569 0 0 1 6.76786,6.76786 z"
       id="path4138"
       inkscape:connector-curvature="0" />
    <path
       id="path4141"
       d="m 164.06301,376.66153 a 5.5604396,5.5604396 0 0 1 -5.56044,5.56044 5.5604396,5.5604396 0 0 1 -5.56043,-5.56044 5.5604396,5.5604396 0 0 1 5.56043,-5.56044 5.5604396,5.5604396 0 0 1 5.56044,5.56044 z"
       style="opacity:1;fill:#000000;fill-opacity:1;stroke:none;stroke-width:1.5;stroke-miterlimit:4;stroke-dasharray:none;stroke-opacity:1"
       inkscape:connector-curvature="0" />
    <path
       style="opacity:1;fill:#ffffff;fill-opacity:1;stroke:none;stroke-width:1.5;stroke-miterlimit:4;stroke-dasharray:none;stroke-opacity:1"
       d="m 162.47784,376.66153 a 3.975274,3.975274 0 0 1 -3.97527,3.97528 3.975274,3.975274 0 0 1 -3.97527,-3.97528 3.975274,3.975274 0 0 1 3.97527,-3.97527 3.975274,3.975274 0 0 1 3.97527,3.97527 z"
       id="path4143"
       inkscape:connector-curvature="0" />
  </g>
</svg>
