<?xml version="1.0" encoding="UTF-8" standalone="no"?>
<!-- Created with Inkscape (http://www.inkscape.org/) -->

<svg
   xmlns:dc="http://purl.org/dc/elements/1.1/"
   xmlns:cc="http://creativecommons.org/ns#"
   xmlns:rdf="http://www.w3.org/1999/02/22-rdf-syntax-ns#"
   xmlns:svg="http://www.w3.org/2000/svg"
   xmlns="http://www.w3.org/2000/svg"
   xmlns:sodipodi="http://sodipodi.sourceforge.net/DTD/sodipodi-0.dtd"
   xmlns:inkscape="http://www.inkscape.org/namespaces/inkscape"
   width="18"
   height="18"
   viewBox="0 0 18 18"
   id="svg2"
   version="1.1"
   inkscape:version="0.91 r13725"
   sodipodi:docname="geolocation.svg">
  <defs
     id="defs4" />
  <sodipodi:namedview
     id="base"
     pagecolor="#ffffff"
     bordercolor="#666666"
     borderopacity="1.0"
     inkscape:pageopacity="0.0"
     inkscape:pageshadow="2"
     inkscape:zoom="5.6"
     inkscape:cx="-30.335029"
     inkscape:cy="4.0695183"
     inkscape:document-units="px"
     inkscape:current-layer="layer1"
     showgrid="false"
     fit-margin-top="0"
     fit-margin-left="0"
     fit-margin-right="0"
     fit-margin-bottom="0"
     units="px"
     inkscape:window-width="1280"
     inkscape:window-height="702"
     inkscape:window-x="0"
     inkscape:window-y="1"
     inkscape:window-maximized="1" />
  <metadata
     id="metadata7">
    <rdf:RDF>
      <cc:Work
         rdf:about="">
        <dc:format>image/svg+xml</dc:format>
        <dc:type
           rdf:resource="http://purl.org/dc/dcmitype/StillImage" />
        <dc:title></dc:title>
      </cc:Work>
    </rdf:RDF>
  </metadata>
  <g
     inkscape:label="Layer 1"
     inkscape:groupmode="layer"
     id="layer1"
     transform="translate(-149.50257,-367.66153)">
    <path
       style="opacity:1;fill:#448ee4;fill-opacity:0.37569059;stroke:none;stroke-width:1.5;stroke-miterlimit:4;stroke-dasharray:none;stroke-opacity:1"
       d="m 167.50257,376.66153 a 8.9999996,8.9999996 0 0 1 -9,9 8.9999996,8.9999996 0 0 1 -9,-9 8.9999996,8.9999996 0 0 1 9,-9 8.9999996,8.9999996 0 0 1 9,9 z"
       id="path4138"
       inkscape:connector-curvature="0" />
    <path
       id="path4141"
       d="m 163.34873,376.66153 a 4.8461535,4.8461535 0 0 1 -4.84616,4.84616 4.8461535,4.8461535 0 0 1 -4.84615,-4.84616 4.8461535,4.8461535 0 0 1 4.84615,-4.84616 4.8461535,4.8461535 0 0 1 4.84616,4.84616 z"
       style="opacity:1;fill:#ffffff;fill-opacity:1;stroke:none;stroke-width:1.5;stroke-miterlimit:4;stroke-dasharray:none;stroke-opacity:1"
       inkscape:connector-curvature="0" />
    <path
       style="opacity:1;fill:#3980ff;fill-opacity:1;stroke:none;stroke-width:1.5;stroke-miterlimit:4;stroke-dasharray:none;stroke-opacity:1"
       d="m 162.65641,376.66153 a 4.1538457,4.1538457 0 0 1 -4.15384,4.15385 4.1538457,4.1538457 0 0 1 -4.15384,-4.15385 4.1538457,4.1538457 0 0 1 4.15384,-4.15384 4.1538457,4.1538457 0 0 1 4.15384,4.15384 z"
       id="path4143"
       inkscape:connector-curvature="0" />
  </g>
</svg>
