
<svg width="48px" height="91px" viewBox="0 0 48 91" version="1.1" xmlns="http://www.w3.org/2000/svg" xmlns:xlink="http://www.w3.org/1999/xlink">
    <defs>
        <linearGradient x1="50.3113733%" y1="24.7706164%" x2="50.181403%" y2="85.7243296%" id="linearGradient-1">
            <stop stop-color="#b70024" offset="0%"></stop>
            <stop stop-color="#cc0028" offset="100%"></stop>
        </linearGradient>
    </defs>
    <g id="Page-1" stroke="none" stroke-width="1" fill="none" fill-rule="evenodd" stroke-linecap="round" stroke-linejoin="round">
        <g id="Pin" transform="translate(-6.000000, 1.000000)" fill="url(#linearGradient-1)" stroke="#8A2121">
            <g id="pin" transform="translate(7.000000, 0.000000)">
                <path d="M22.9995062,0 C9.69417206,3.18802205e-15 0.00071545557,10 0,24 C-0.00071545557,38 15.8118519,58.0645161 22.9995062,90 C30.1871605,58.0645161 46,38 46,24 C46,10 36.3048404,0 22.9995062,0 Z M23.0000001,7 C27.2436306,7.00014036 31.3133951,8.68593354 34.3139815,11.68652 C37.3145679,14.6871065 39.0001807,18.7566907 39,23.0000003 C39.0001805,27.2433097 37.3145677,31.3128938 34.3139813,34.3134802 C31.3133949,37.3140665 27.2436306,38.9998596 23.0000001,39 C18.7563697,38.9998597 14.6866052,37.3140666 11.6860188,34.3134803 C8.68543233,31.3128939 6.99981946,27.2433098 7,23.0000003 C6.99981931,18.7566907 8.68543212,14.6871064 11.6860186,11.6865199 C14.686605,8.68593344 18.7563696,7.00014029 23.0000001,7 Z" id="path4136" stroke-width="0.537110018" fill-rule="nonzero"></path>
            </g>
        </g>
    </g>
</svg>